<svg xmlns="http://www.w3.org/2000/svg" viewBox="0 0 219.21 66"><defs><style>.cls-1{fill:none;stroke:#4baace;stroke-miterlimit:10;}</style></defs><title>ataria-lower</title><g id="Layer_2" data-name="Layer 2"><g id="Layer_1-2" data-name="Layer 1"><path class="cls-1" d="M28.94,64.65a13.62,13.62,0,0,1-1.23-4.12,14.84,14.84,0,0,1-11.59,5A16.3,16.3,0,0,1,4.94,61.59,12.56,12.56,0,0,1,.5,51.74q0-7.3,5.41-11.21t15.64-3.95H27.2V34a7.58,7.58,0,0,0-1.63-5.09q-1.63-1.91-5.16-1.91a7.31,7.31,0,0,0-4.86,1.49,5,5,0,0,0-1.76,4.08H1.52A12.33,12.33,0,0,1,4,25.12a16.28,16.28,0,0,1,7-5.33A25.39,25.39,0,0,1,21,17.86q8.49,0,13.48,4.27t5,12V54q0,6.54,1.83,9.89v.72ZM18.8,56.11a10.57,10.57,0,0,0,5-1.21,8,8,0,0,0,3.4-3.25v-7.9H22.62q-9.21,0-9.81,6.37l0,.72a4.91,4.91,0,0,0,1.61,3.78A6.26,6.26,0,0,0,18.8,56.11Z"/><path class="cls-1" d="M63.63,7.42V18.71h7.85v9H63.63V50.64a5.47,5.47,0,0,0,1,3.65q1,1.1,3.74,1.1A19.56,19.56,0,0,0,72,55.1v9.3a25.28,25.28,0,0,1-7.43,1.1q-12.91,0-13.16-13V27.71H44.65v-9h6.71V7.42Z"/><path class="cls-1" d="M104.94,64.65a13.62,13.62,0,0,1-1.23-4.12,14.84,14.84,0,0,1-11.59,5,16.3,16.3,0,0,1-11.19-3.91,12.56,12.56,0,0,1-4.44-9.85q0-7.3,5.41-11.21t15.64-3.95h5.65V34a7.58,7.58,0,0,0-1.63-5.09q-1.63-1.91-5.16-1.91a7.31,7.31,0,0,0-4.86,1.49,5,5,0,0,0-1.76,4.08H77.51A12.33,12.33,0,0,1,80,25.12a16.28,16.28,0,0,1,7-5.33A25.39,25.39,0,0,1,97,17.86q8.49,0,13.48,4.27t5,12V54q0,6.54,1.83,9.89v.72ZM94.79,56.11a10.57,10.57,0,0,0,5-1.21,8,8,0,0,0,3.4-3.25v-7.9H98.61q-9.21,0-9.81,6.37l0,.72a4.91,4.91,0,0,0,1.61,3.78A6.26,6.26,0,0,0,94.79,56.11Z"/><path class="cls-1" d="M150.74,30.22a33.31,33.31,0,0,0-4.42-.34q-7,0-9.13,4.71V64.65H124.93V18.71h11.59l.34,5.48q3.69-6.33,10.23-6.33a12.88,12.88,0,0,1,3.82.55Z"/><path class="cls-1" d="M156.56,6.83a6,6,0,0,1,1.85-4.54,8,8,0,0,1,10,0,6,6,0,0,1,1.87,4.54,6,6,0,0,1-1.89,4.58,7.87,7.87,0,0,1-10,0A6,6,0,0,1,156.56,6.83Zm13,57.82H157.28V18.71h12.31Z"/><path class="cls-1" d="M206.32,64.65a13.62,13.62,0,0,1-1.23-4.12,14.84,14.84,0,0,1-11.59,5,16.3,16.3,0,0,1-11.19-3.91,12.56,12.56,0,0,1-4.44-9.85q0-7.3,5.41-11.21t15.64-3.95h5.65V34a7.58,7.58,0,0,0-1.63-5.09q-1.63-1.91-5.16-1.91a7.31,7.31,0,0,0-4.86,1.49,5,5,0,0,0-1.76,4.08H178.89a12.33,12.33,0,0,1,2.46-7.39,16.28,16.28,0,0,1,7-5.33,25.39,25.39,0,0,1,10.1-1.93q8.49,0,13.48,4.27t5,12V54q0,6.54,1.83,9.89v.72Zm-10.15-8.53a10.57,10.57,0,0,0,5-1.21,8,8,0,0,0,3.4-3.25v-7.9H200q-9.21,0-9.81,6.37l0,.72a4.91,4.91,0,0,0,1.61,3.78A6.26,6.26,0,0,0,196.17,56.11Z"/></g></g></svg>