<svg xmlns="http://www.w3.org/2000/svg" viewBox="0 0 225.29 239.77"><defs><style>.cls-1,.cls-3{fill:none;}.cls-1,.cls-2,.cls-3{stroke:#000;stroke-miterlimit:10;}.cls-2{fill:#fff;}.cls-3{stroke-width:5px;}</style></defs><title>ataria-header_2</title><g id="Layer_2" data-name="Layer 2"><g id="Layer_1-2" data-name="Layer 1"><path class="cls-1" d="M155.69,190.08H69.43L53,239.27H.72L89.6.5h45.59l89.38,238.77H172.26Zm-73-39.85h59.69l-30-89.38Z"/><path class="cls-2" d="M79.11,122.51H72.3L71,126.4H66.87l7-18.86h3.6l7.06,18.86H80.42Zm-5.76-3.15h4.71l-2.37-7.06Z"/><path class="cls-2" d="M99,110.69H93.17V126.4H89.29V110.69h-5.7v-3.15H99Z"/><path class="cls-2" d="M110.26,122.51h-6.81l-1.29,3.88H98l7-18.86h3.6l7.06,18.86h-4.13Zm-5.76-3.15h4.71l-2.37-7.06Z"/><path class="cls-2" d="M124.44,119.5h-3.1v6.9h-3.89V107.54h7a7.92,7.92,0,0,1,5.16,1.49,5.14,5.14,0,0,1,1.81,4.21,5.8,5.8,0,0,1-.83,3.22,5.7,5.7,0,0,1-2.53,2.05l4.08,7.71v.18H128Zm-3.1-3.15h3.13a3.21,3.21,0,0,0,2.27-.74,2.66,2.66,0,0,0,.8-2.05,2.85,2.85,0,0,0-.76-2.1,3.15,3.15,0,0,0-2.33-.76h-3.12Z"/><path class="cls-2" d="M138.52,126.4h-3.89V107.54h3.89Z"/><path class="cls-2" d="M153,122.51h-6.81l-1.29,3.88h-4.13l7-18.86h3.6l7.06,18.86h-4.13Zm-5.76-3.15h4.71l-2.37-7.06Z"/><path d="M77.86,122.17H71l-1.29,3.88H65.62l7-18.86h3.6l7.06,18.86H79.17ZM72.09,119h4.71L74.44,112Z"/><path d="M97.7,110.35H91.92v15.71H88V110.35h-5.7V107.2H97.7Z"/><path d="M109,122.17h-6.81l-1.29,3.88H96.77l7-18.86h3.6l7.06,18.86h-4.13ZM103.24,119H108L105.59,112Z"/><path d="M123.19,119.16h-3.1v6.9h-3.89V107.2h7a7.92,7.92,0,0,1,5.16,1.49,5.14,5.14,0,0,1,1.81,4.21,5.8,5.8,0,0,1-.83,3.22,5.7,5.7,0,0,1-2.53,2.05l4.08,7.71v.18h-4.17Zm-3.1-3.15h3.13a3.21,3.21,0,0,0,2.27-.74,2.66,2.66,0,0,0,.8-2.05,2.85,2.85,0,0,0-.76-2.1,3.15,3.15,0,0,0-2.33-.76h-3.12Z"/><path d="M137.27,126.06h-3.89V107.2h3.89Z"/><path d="M151.75,122.17h-6.81l-1.29,3.88h-4.13l7-18.86h3.6l7.06,18.86h-4.13ZM146,119h4.71L148.33,112Z"/><line class="cls-3" x1="66.17" y1="132.27" x2="156.66" y2="132.27"/></g></g></svg>