<svg xmlns="http://www.w3.org/2000/svg" viewBox="0 0 76.9 76.73"><defs><style>.cls-1{fill:none;stroke:#000;stroke-miterlimit:10;}</style></defs><title>ataria-header_3</title><g id="Layer_2" data-name="Layer 2"><g id="Layer_1-2" data-name="Layer 1"><path class="cls-1" d="M52.06,60.62H24.7l-5.2,15.6H2.91L31.1.5H45.56L73.9,76.23H57.31ZM28.92,48H47.85L38.33,19.64Z"/><path d="M10.28,48.25H4.56L3.47,51.51H0L5.9,35.67h3l5.93,15.84H11.38ZM5.44,45.6h4l-2-5.93Z"/><path d="M26.94,38.31H22.09V51.51H18.83V38.31H14V35.67h12.9Z"/><path d="M36.44,48.25H30.72l-1.09,3.26H26.16l5.9-15.84h3L41,51.51H37.54ZM31.6,45.6h4l-2-5.93Z"/><path d="M48.35,45.71h-2.6v5.8H42.49V35.67h5.88a6.65,6.65,0,0,1,4.33,1.25,4.32,4.32,0,0,1,1.52,3.54,4.87,4.87,0,0,1-.7,2.7,4.79,4.79,0,0,1-2.13,1.72l3.43,6.47v.15h-3.5Zm-2.6-2.64h2.63a2.7,2.7,0,0,0,1.9-.62A2.24,2.24,0,0,0,51,40.72,2.39,2.39,0,0,0,50.33,39a2.64,2.64,0,0,0-2-.64H45.75Z"/><path d="M60.17,51.51H56.91V35.67h3.26Z"/><path d="M72.34,48.25H66.61l-1.09,3.26H62.06L68,35.67h3L76.9,51.51H73.43ZM67.5,45.6h4l-2-5.93Z"/></g></g></svg>