<svg xmlns="http://www.w3.org/2000/svg" viewBox="0 0 50.15 240.08"><defs><style>.cls-1{fill:none;stroke:#00aeef;stroke-width:1;}</style></defs><title>logo-vertical-1</title><g id="Layer_2" data-name="Layer 2"><g id="Layer_1-2" data-name="Layer 1"><path class="cls-1" d="M39.52,207.47v17.75l10.13,3.38v10.77L.5,221.07v-9.38l49.15-18.4v10.77Zm-8.2,15V210.2l-18.4,6.18Z"/><path class="cls-1" d="M8.7,155.75v15.05H49.65v10.13H8.7v14.85H.5v-40Z"/><path class="cls-1" d="M39.52,126.29V144l10.13,3.38v10.77L.5,139.89v-9.38l49.15-18.4v10.77Zm-8.2,15V129l-18.4,6.18Z"/><path class="cls-1" d="M31.66,89.33v8.07h18v10.13H.5V89.26q0-8.71,3.88-13.43t11-4.73a15.12,15.12,0,0,1,8.39,2.18,14.84,14.84,0,0,1,5.35,6.6L49.17,69.24h.47V80.11Zm-8.2,8.07V89.22a8.36,8.36,0,0,0-1.94-5.91,6.94,6.94,0,0,0-5.35-2.09,7.43,7.43,0,0,0-5.47,2q-2,2-2,6.06v8.13Z"/><path class="cls-1" d="M49.65,52.64V62.76H.5V52.64Z"/><path class="cls-1" d="M39.52,14.9V32.65L49.65,36V46.8L.5,28.5V19.12L49.65.72V11.49Zm-8.2,15V17.63l-18.4,6.18Z"/></g></g></svg>
