<svg xmlns="http://www.w3.org/2000/svg" viewBox="0 0 159.72 33.6"><defs><style>.cls-1{fill:none;stroke:#00aeef;stroke-miterlimit:10;}</style></defs><title>logo-horizontal</title><g id="Layer_2" data-name="Layer 2"><g id="Layer_1-2" data-name="Layer 1"><path class="cls-1" d="M21.88,26.38H10.1L7.86,33.1H.72L12.85.5h6.22l12.2,32.6H24.14Zm-10-5.44h8.15L16,8.74Z"/><path class="cls-1" d="M56.17,5.94h-10V33.1H39.47V5.94H29.62V.5H56.17Z"/><path class="cls-1" d="M75.72,26.38H63.94L61.7,33.1H54.56L66.7.5h6.22l12.2,32.6H78Zm-10-5.44h8.15l-4.1-12.2Z"/><path class="cls-1" d="M100.23,21.16H94.88V33.1H88.17V.5h12.11q5.78,0,8.91,2.57a8.89,8.89,0,0,1,3.13,7.28,10,10,0,0,1-1.44,5.56,9.85,9.85,0,0,1-4.38,3.55l7.05,13.32v.31h-7.21Zm-5.35-5.44h5.42a5.54,5.54,0,0,0,3.92-1.29,4.6,4.6,0,0,0,1.39-3.55,4.93,4.93,0,0,0-1.31-3.63,5.45,5.45,0,0,0-4-1.32H94.88Z"/><path class="cls-1" d="M124.57,33.1h-6.72V.5h6.72Z"/><path class="cls-1" d="M149.6,26.38H137.82l-2.24,6.72h-7.14L140.58.5h6.22L159,33.1h-7.14Zm-10-5.44h8.15l-4.1-12.2Z"/></g></g></svg>
